inDegrees=no
num_controls=7
num_derivatives=13
num_iterations=151
num_multipliers=7
num_parameters=0
num_slacks=7
num_states=26
objective=5.184530
objective_accelerations=0.515382
objective_balance=0.051423
objective_effort=0.283393
objective_height=4.270162
objective_ligament=0.064171
solver_duration=1684.030129
status=Solve_Succeeded
success=true
DataType=double
version=3
OpenSimVersion=4.4-2022-07-23-0e9fedc
endheader
time	/jointset/ground_pelvis/pelvis_tilt/value	/jointset/ground_pelvis/pelvis_tx/value	/jointset/ground_pelvis/pelvis_ty/value	/jointset/hip_l/hip_flexion_l/value	/jointset/hip_l/hip_adduction_l/value	/jointset/hip_l/hip_rotation_l/value	/jointset/back/lumbar_extension/value	/jointset/patellofemoral_l/patellar_flexion_l/value	/jointset/knee_l/knee_flexion_l/value	/jointset/knee_l/knee_adduction_l/value	/jointset/knee_l/knee_rotation_l/value	/jointset/ankle_l/ankle_angle_l/value	/jointset/subtalar_l/subtalar_angle_l/value	/jointset/ground_pelvis/pelvis_tilt/speed	/jointset/ground_pelvis/pelvis_tx/speed	/jointset/ground_pelvis/pelvis_ty/speed	/jointset/hip_l/hip_flexion_l/speed	/jointset/hip_l/hip_adduction_l/speed	/jointset/hip_l/hip_rotation_l/speed	/jointset/back/lumbar_extension/speed	/jointset/patellofemoral_l/patellar_flexion_l/speed	/jointset/knee_l/knee_flexion_l/speed	/jointset/knee_l/knee_adduction_l/speed	/jointset/knee_l/knee_rotation_l/speed	/jointset/ankle_l/ankle_angle_l/speed	/jointset/subtalar_l/subtalar_angle_l/speed	/forceset/tau_hip_flexion_l	/forceset/tau_hip_adduction_l	/forceset/tau_hip_rotation_l	/forceset/tau_knee_flexion_l	/forceset/tau_ankle_angle_l	/forceset/tau_subtalar_angle_l	/forceset/tau_lumbar_extension	lambda_cid13_p0	lambda_cid13_p1	lambda_cid13_p2	lambda_cid13_p3	lambda_cid13_p4	lambda_cid13_p5	lambda_cid14_p0	/jointset/ground_pelvis/pelvis_tilt/accel	/jointset/ground_pelvis/pelvis_tx/accel	/jointset/ground_pelvis/pelvis_ty/accel	/jointset/hip_l/hip_flexion_l/accel	/jointset/hip_l/hip_adduction_l/accel	/jointset/hip_l/hip_rotation_l/accel	/jointset/back/lumbar_extension/accel	/jointset/patellofemoral_l/patellar_flexion_l/accel	/jointset/knee_l/knee_flexion_l/accel	/jointset/knee_l/knee_adduction_l/accel	/jointset/knee_l/knee_rotation_l/accel	/jointset/ankle_l/ankle_angle_l/accel	/jointset/subtalar_l/subtalar_angle_l/accel	gamma_cid13_p0	gamma_cid13_p1	gamma_cid13_p2	gamma_cid13_p3	gamma_cid13_p4	gamma_cid13_p5	gamma_cid14_p0
0	-0.0435848844846107	0.07071055115908886	0.8961160480768318	0.1955292361009247	-0.3202398407281702	-0.5180455135214249	-0.137903700187828	0.07015350928391263	0.07015350928391206	-0.1745329016558078	-0.1507869208924964	-0.06701017130107029	0.006108953678229748	0	0	0	0	0	0	0	0	0	0	0	0	0	0.1029192135150932	-0.08743480143916975	-0.03328202044006371	-0.2135242350298716	0.1551985572691651	-0.02092277315348895	-0.05057697075178488	13.18566510528741	1.39441624990987	5.591174589955928	15.36122129592578	-519.4965393389009	-79.52010971178866	-40.841296971795	-5.141523791353921	-2.260582725539083	-0.9299213023529858	12.18931027218445	-1.807275562127458	2.72270562500097	-2.87315789213763	7.336790719860404	7.336790719860456	0.07453089064992666	-0.5056650421336013	0.23068610595016	-1.861727996450761	-2.318849363344724e-09	9.089546618873868e-08	4.460584524766814e-08	-1.347993935929235e-09	3.078567831869583e-08	5.168909126888526e-08	-2.464139374680511e-09
0.01	-0.04383249464232127	0.07059918197256242	0.8960708009069929	0.1961202693996076	-0.3203289463309487	-0.5179095396207452	-0.1380523119441409	0.07050931118014434	0.07050931118020672	-0.1745322373873319	-0.1508080180114534	-0.06700128688580552	0.006015780191311547	-0.04931591333733571	-0.02214828809357603	-0.009017506362080124	0.1176637584367722	-0.01773416474697816	0.02708340416476464	-0.029463855166752	0.07083347105338329	0.07083347105338222	0.0001361062837219248	-0.004182253183833894	0.001796417284810255	-0.01852794786798035	0.09959040458052548	-0.08909461131887544	-0.03281536185465771	-0.2107373030226872	0.1513215998926263	-0.01686842480764862	-0.04753366931000101	12.09102255200336	-0.08790654093788283	5.728331353962178	14.84242283419411	-520.2326578486176	-82.35294346038594	-40.84851858342948	-4.79571485653848	-2.173119738177215	-0.8828700053238709	11.47346639454055	-1.743454139681298	2.684447485116652	-2.944224915024272	6.907589561019267	6.907589561019107	-0.01634511764470788	-0.3689267612278678	0.1570522491276687	-1.832335405453833	-2.837147823035336e-08	1.057921830961624e-07	8.118017223869693e-08	1.85413359980843e-08	-1.20283726473528e-07	4.304106093020069e-08	-8.436335741758396e-09
0.02	-0.04456708188371435	0.07027009632771863	0.8959363377330952	0.1978716518356758	-0.3205927870229385	-0.5175060737438325	-0.1384878073693367	0.07156364063956233	0.07156364063956154	-0.1745301111782519	-0.1508698219230878	-0.06697385175581597	0.005740525781017193	-0.09739541673932281	-0.04354329166346715	-0.0178432008117538	0.2320698274782152	-0.03494701784190206	0.05349839524564262	-0.05737673377675021	0.1397055126244564	0.1397055126244565	0.0002923879722977465	-0.008141358556453693	0.003710142944876199	-0.03641618467525862	0.09626159564576085	-0.09075442119857466	-0.03234870326991302	-0.207950371015508	0.1474446425160532	-0.01281407646181301	-0.04449036786834583	11.04088320682114	-1.578757687947316	5.867689579344331	14.27121783411107	-520.2789211037226	-85.06595310856821	-40.8697642512005	-4.894241804284645	-2.10992582080177	-0.8915589198717608	11.53777239311833	-1.703013231717242	2.58902300822362	-2.562962580787028	6.944504823398372	6.944504823398877	0.07856597161928114	-0.4610354798907709	0.2541477810014811	-1.733785784310932	-5.4424107097362e-08	1.206889000035861e-07	1.177544992297257e-07	3.843066593209783e-08	-2.713531312657519e-07	3.439303059151613e-08	-1.440853210883628e-08
0.03	-0.04577650551657089	0.0697306498866382	0.8957143520908784	0.2007516731434117	-0.3210260364375354	-0.5168418593765693	-0.1391940175013207	0.07329736686629301	0.07329736686622333	-0.1745260174636351	-0.1509703465159061	-0.06692670618781155	0.005289714245642837	-0.1442499771230221	-0.06423561078239934	-0.02653739540335186	0.343389100445448	-0.05160730723458606	0.07922847399297879	-0.08359791237033763	0.2067219808992148	0.2067219808992071	0.0005346266692252761	-0.01193508239058876	0.005723605557368741	-0.05363727066743901	0.09122881387121967	-0.08605297416448965	-0.03155427665366388	-0.2028973392863239	0.1429595472683545	-0.01297470850198764	-0.04027392527828346	9.644717111773636	-1.343799882846787	5.920768244691258	14.44984368042642	-520.1546818631024	-83.68331720330704	-40.90425492762613	-4.545171482851452	-2.032319324877608	-0.8559247756258153	10.84719217077147	-1.633214485406909	2.547584653350962	-2.611588461637762	6.532557963488094	6.532557963486536	-0.001678816428498217	-0.3342550365598587	0.1756400410681007	-1.699974297714753	-7.315040969713114e-08	1.353758360457744e-07	1.424722020866243e-07	5.376437939885974e-08	-3.841879643863339e-07	2.888156386099059e-08	-1.779815197339499e-08
0.04	-0.04744729641873827	0.0689875933808812	0.8954059094933812	0.204728524665284	-0.3216230242845358	-0.5159238273527647	-0.1401544180118356	0.07569172580246858	0.07569172580246922	-0.1745192476890645	-0.151107951187492	-0.06685928708574279	0.004669950992138164	-0.1896688706043121	-0.08426530459878066	-0.03513459186787209	0.4514358703025138	-0.06769470432179481	0.1042619265548078	-0.1082148094836844	0.271832054532925	0.2718320545329064	0.0008275999598256876	-0.01555737428010973	0.007764849757667476	-0.07020652830134995	0.0861960320967266	-0.08135152713039531	-0.03075985003651719	-0.1978443075572633	0.1384744520206514	-0.01313534054216464	-0.03605748268818097	8.288931835766062	-1.115305170988591	5.974184300916391	14.57749971703453	-519.4103285991949	-82.18721885656076	-40.95110134502318	-4.607108423802997	-1.977400760291405	-0.8721592944562142	10.88327177108486	-1.588434770622351	2.449697771122185	-2.242106284739023	6.563225895188733	6.563225895188649	0.08871289035349789	-0.4267490909679243	0.2597040985628994	-1.603420112657124	-9.172565402334897e-08	1.500584467092982e-07	1.669454384665305e-07	6.900416262918346e-08	-4.962344558229647e-07	2.343476854506628e-08	-2.113452283790176e-08
0.05	-0.0495659267999473	0.06804748332182964	0.8950117439700227	0.20977089589305	-0.3223780380867372	-0.5147588706159868	-0.1413527916485431	0.07872828994835386	0.07872828994836907	-0.1745091491008496	-0.1512810922067473	-0.06677118256260987	0.003887817652508171	-0.2338347441632829	-0.1036498173059786	-0.04369729655117997	0.5565199706335123	-0.08321250185642912	0.1286198931654397	-0.1312419807114822	0.3351624679348298	0.3351624679348384	0.001185686569965142	-0.01903628416171887	0.00985002337266571	-0.08611658791725495	0.08144477239812502	-0.07902786525015427	-0.03008150641921094	-0.1941826849109045	0.134777246867571	-0.01178665178099027	-0.03216301887137486	7.243107431610222	-1.530259432195848	6.054428684050553	14.433071945714	-518.5892558830682	-82.14259375290139	-41.009191450723	-4.287966596365391	-1.902929115669487	-0.8482437697103117	10.24320162336472	-1.519132108007005	2.412395120550217	-2.300331970109752	6.170207310461508	6.170207310465678	0.008428450499839648	-0.3032591723453624	0.1820164397763619	-1.569307922487431	-1.056510001945856e-07	1.650690093559646e-07	1.877012848335324e-07	8.127338218417162e-08	-5.710290441616817e-07	2.101974866818311e-08	-2.361033835497339e-08
0.06	-0.05211954387161959	0.0669167376177595	0.8945319678569421	0.2158485526159448	-0.3232853658369125	-0.5133536244101895	-0.1427748988831986	0.08238860987779506	0.08238860987779441	-0.174495655265652	-0.1514879817719513	-0.066662407813965	0.002949681909433169	-0.2766662086991318	-0.1223924336024972	-0.05225670981228996	0.6584929693348118	-0.09815749391599729	0.1523198203567394	-0.152961529071695	0.3965832112475482	0.3965832112475845	0.001506649346332548	-0.02230708346684182	0.01189889485999352	-0.1014070089903688	0.07669351269903329	-0.07670420336986367	-0.02940316280194107	-0.1905210622647634	0.131080041714425	-0.01043796301979795	-0.02826855505494359	6.232767951941102	-1.950361205116153	6.134276946287236	14.24283863695805	-517.2152359249746	-81.99415516644127	-41.07731424078234	-4.340226619178806	-1.849021478155367	-0.8715010100166465	10.26105144514506	-1.473873675609205	2.318089887255741	-1.980581711222142	6.181291877351454	6.181291877351458	0.08128812359894251	-0.3851269756706562	0.2524436730289913	-1.479492404098883	-1.193805611803493e-07	1.800933805071843e-07	2.083006095157805e-07	9.341752537388245e-08	-6.442551313173285e-07	1.873238249399641e-08	-2.604991996267932e-08
0.07000000000000001	-0.05509542600760186	0.06560180926889339	0.8939664419024566	0.2229314590424298	-0.3243392536508365	-0.5117146668699893	-0.1444068642172687	0.08665423481545427	0.08665423481542978	-0.1744788610589826	-0.1517267650747736	-0.06653301781397457	0.001861943495433186	-0.3182805604684694	-0.1404793036981596	-0.06085594981093574	0.7575576770804012	-0.1125177884415316	0.1753625427267581	-0.1732040926223284	0.4562192789094827	0.4562192789094967	0.001847602726541464	-0.02541168390435155	0.01397859784981809	-0.1160264696429913	0.07141336206813542	-0.07378260044548984	-0.02868564547225447	-0.1869596930566625	0.1277800623498739	-0.009427983559419456	-0.02400085920750124	5.331768920541193	-2.249823980298546	6.203250301232927	13.99164242844322	-515.9416662948527	-81.47225493926229	-41.15408801723862	-4.037601114237152	-1.771411073304725	-0.8553855423324468	9.649563978131733	-1.401781297958606	2.280964491976862	-2.011976909315027	5.806394844619925	5.806394844616436	0.009855481835542901	-0.267416171214905	0.185653271426713	-1.43609320419799	-1.290165675684892e-07	1.929636822000897e-07	2.232987975947688e-07	1.027723864645181e-07	-6.8666875790277e-07	1.581796600307262e-08	-2.734226875803669e-08
0.08	-0.05848056399294838	0.06410943395946438	0.893314673538475	0.2309890892541389	-0.3255336792014071	-0.5098485618900688	-0.146234431833313	0.09150654655649221	0.09150654655648835	-0.1744587860112032	-0.1519954523007171	-0.0663828468521918	0.0006314264132363374	-0.358517378574888	-0.1578818257150783	-0.06950519171148445	0.8534377263806124	-0.1262650412443951	0.1977493083008584	-0.192081985466235	0.5139205719316454	0.5139205719316345	0.00216281757090154	-0.02828786807880525	0.0160550872183539	-0.1299627426297727	0.06613321143707257	-0.07086099752108127	-0.02796812814224597	-0.1833983238486649	0.1244800829853156	-0.008418004099011053	-0.01973316336020525	4.461666660712779	-2.553068354635707	6.270967025704925	13.69893504562805	-514.1850841232812	-80.85718656263099	-41.2380526370376	-4.064719886595122	-1.712151862406494	-0.8815013903972354	9.624119756069442	-1.351265331075082	2.186898528072067	-1.70764756987686	5.794336949397107	5.794336949396619	0.0761404164291101	-0.3394437230594211	0.2518009487713977	-1.342854870930641	-1.383884736600083e-07	2.05695011669878e-07	2.379356220219339e-07	1.119472938713424e-07	-7.270944838062626e-07	1.286309465300451e-08	-2.856060253324253e-08
0.09	-0.06226190572035001	0.0624464530506708	0.8925760071644386	0.2399908472746897	-0.3268625439222911	-0.5077618695801159	-0.1482432667973241	0.09692693439667675	0.09692693439667226	-0.1744354658821739	-0.1522920376005102	-0.06621163796377998	-0.0007349096662030846	-0.3975225938625453	-0.1745968122666426	-0.07824241612959053	0.9463837781219334	-0.13940346076766	0.2194806162559168	-0.2094605824024033	0.5698336067786252	0.5698336067786268	0.002492742281643981	-0.03099049804689376	0.01818738213340448	-0.1431872140597437	0.06058072099115699	-0.06821067854059604	-0.0272494751526887	-0.1802273204608545	0.1215334571081449	-0.007152342983726755	-0.01529128753431156	3.702891598172519	-2.972584502280922	6.340928254723027	13.32013595093639	-512.5930467927357	-80.45143026868776	-41.32764023010152	-3.78417828387449	-1.633517946966563	-0.8721289948372196	9.050309346637963	-1.279484124852706	2.149935958826946	-1.719302015811499	5.44128408494381	5.441284084945587	0.01020049850840904	-0.2298386208871691	0.1940422632229386	-1.294712500292243	-1.44378880657442e-07	2.131439307748685e-07	2.496826340503874e-07	1.180155962291143e-07	-7.433547514973211e-07	8.722210816608587e-09	-2.947396166900325e-08
